<svg width="114" height="114" viewBox="0 0 114 114" fill="none" xmlns="http://www.w3.org/2000/svg">
<path d="M95 14.25H42.75C40.1266 14.25 38 16.3766 38 19V42.75C38 45.3734 40.1266 47.5 42.75 47.5H95C97.6234 47.5 99.75 45.3734 99.75 42.75V19C99.75 16.3766 97.6234 14.25 95 14.25Z" stroke="#3E90F0" style="stroke:#3E90F0;stroke:color(display-p3 0.2449 0.5651 0.9411);stroke-opacity:1;" stroke-width="9" stroke-linecap="round" stroke-linejoin="round"/>
<path d="M9.5 42.75L23.75 57L9.5 71.25" stroke="#E5E7EB" style="stroke:#E5E7EB;stroke:color(display-p3 0.8980 0.9059 0.9216);stroke-opacity:1;" stroke-width="9" stroke-linecap="round" stroke-linejoin="round"/>
<path d="M95 66.5H42.75C40.1266 66.5 38 68.6266 38 71.25V95C38 97.6234 40.1266 99.75 42.75 99.75H95C97.6234 99.75 99.75 97.6234 99.75 95V71.25C99.75 68.6266 97.6234 66.5 95 66.5Z" stroke="#3E90F0" style="stroke:#3E90F0;stroke:color(display-p3 0.2449 0.5651 0.9411);stroke-opacity:1;" stroke-width="9" stroke-linecap="round" stroke-linejoin="round"/>
</svg>
