<svg width="496" height="528" viewBox="0 0 496 528" fill="none" xmlns="http://www.w3.org/2000/svg">
<g clip-path="url(#clip0_2001_3171)">
<rect width="496" height="528" fill="#222224" style="fill:#222224;fill:color(display-p3 0.1333 0.1333 0.1412);fill-opacity:1;"/>
<rect width="496" height="528" rx="16" fill="#141718" style="fill:#141718;fill:color(display-p3 0.0784 0.0902 0.0941);fill-opacity:1;"/>
<rect x="0.5" y="0.5" width="495" height="527" rx="15.5" stroke="white" stroke-opacity="0.1" style="stroke:white;stroke-opacity:0.1;"/>
<rect x="32" y="32" width="48" height="48" rx="24" fill="url(#paint0_linear_2001_3171)" style=""/>
<path d="M65.9537 48.6759V65.3158C65.9537 67.6546 64.7899 68.8183 62.4848 68.8183H54.6644C56.5698 68.5516 58.5496 68.1561 60.7615 67.5427C63.0331 66.8936 64.0737 65.4388 64.0737 62.8316V46.449C64.0737 46.0694 64.0448 45.7112 63.9857 45.3784C65.2947 45.815 65.9537 46.9159 65.9537 48.6759Z" fill="white" fill-opacity="0.85" style="fill:white;fill-opacity:0.85;"/>
<path d="M45.7106 64.969C45.7106 66.916 46.9191 67.9232 48.9893 67.8001C52.7492 67.5987 56.0727 67.2518 60.3474 66.0768C61.9364 65.6292 62.5519 64.7899 62.5519 62.8316V46.4491C62.5519 44.2222 61.3546 43.1368 59.206 43.6403C56.0727 44.3453 52.7492 44.9048 48.7207 45.1398C46.9079 45.2517 45.7106 46.2812 45.7106 48.3067V64.969ZM47.5122 64.6444V48.2619C47.5122 47.3219 48.0941 46.9526 48.9334 46.9079C52.7828 46.7065 56.0392 46.1469 59.1053 45.4531C60.146 45.2182 60.7503 45.7553 60.7503 46.7624V62.7645C60.7503 63.794 60.4034 64.2528 59.5417 64.4765C56.0392 65.4502 52.7828 65.8082 49.0677 65.9985C48.0941 66.0432 47.5122 65.5508 47.5122 64.6444Z" fill="white" fill-opacity="0.85" style="fill:white;fill-opacity:0.85;"/>
<path d="M49.974 50.8692C53.1409 50.6678 55.6923 50.2314 58.2995 49.6495C58.8143 49.5376 58.9374 49.2802 58.9374 48.9669C58.9374 48.62 58.6689 48.3179 58.1765 48.4186C55.6923 48.9669 53.1409 49.4145 49.974 49.6159C49.5264 49.6495 49.325 49.9181 49.325 50.265C49.325 50.6231 49.5936 50.8916 49.974 50.8692ZM49.974 54.4725C53.1409 54.271 55.6923 53.8235 58.2995 53.2527C58.8143 53.1408 58.9374 52.8835 58.9374 52.5702C58.9374 52.2233 58.6689 51.9211 58.1765 52.0219C55.6923 52.5702 53.1409 53.0177 49.974 53.2192C49.5264 53.2527 49.325 53.5213 49.325 53.857C49.325 54.2151 49.5936 54.4949 49.974 54.4725ZM49.974 58.0757C53.1409 57.8744 55.6923 57.4267 58.2995 56.8561C58.8143 56.7441 58.9374 56.4867 58.9374 56.1734C58.9374 55.8265 58.6689 55.5243 58.1765 55.6251C55.6923 56.1734 53.1409 56.6211 49.974 56.8224C49.5264 56.8561 49.325 57.1246 49.325 57.4603C49.325 57.8184 49.5936 58.0981 49.974 58.0757ZM49.974 61.6678C51.8092 61.5672 53.029 61.3881 54.2375 61.1978C54.6068 61.1307 54.8082 60.8397 54.8082 60.5488C54.8082 60.2131 54.5396 59.8885 54.0361 59.9781C52.9618 60.146 51.7757 60.3138 49.974 60.4145C49.5264 60.4481 49.325 60.7166 49.325 61.0524C49.325 61.4105 49.5936 61.6902 49.974 61.6678Z" fill="white" fill-opacity="0.85" style="fill:white;fill-opacity:0.85;"/>
<path d="M97.7216 65V47.5455H100.884V62.3494H108.571V65H97.7216ZM110.459 65V51.9091H113.544V65H110.459ZM112.01 50.0511C111.521 50.0511 111.101 49.8892 110.749 49.5653C110.396 49.2358 110.22 48.8409 110.22 48.3807C110.22 47.9148 110.396 47.5199 110.749 47.196C111.101 46.8665 111.521 46.7017 112.01 46.7017C112.504 46.7017 112.925 46.8665 113.271 47.196C113.624 47.5199 113.8 47.9148 113.8 48.3807C113.8 48.8409 113.624 49.2358 113.271 49.5653C112.925 49.8892 112.504 50.0511 112.01 50.0511ZM116.133 65V47.5455H119.218V54.0739H119.346C119.505 53.7557 119.73 53.4176 120.02 53.0597C120.309 52.696 120.701 52.3864 121.196 52.1307C121.69 51.8693 122.321 51.7386 123.088 51.7386C124.099 51.7386 125.011 51.9972 125.823 52.5142C126.642 53.0256 127.289 53.7841 127.767 54.7898C128.25 55.7898 128.491 57.017 128.491 58.4716C128.491 59.9091 128.255 61.1307 127.784 62.1364C127.312 63.142 126.67 63.9091 125.858 64.4375C125.045 64.9659 124.125 65.2301 123.096 65.2301C122.346 65.2301 121.724 65.1051 121.23 64.8551C120.735 64.6051 120.338 64.304 120.037 63.9517C119.741 63.5937 119.511 63.2557 119.346 62.9375H119.167V65H116.133ZM119.159 58.4545C119.159 59.3011 119.278 60.0426 119.517 60.679C119.761 61.3153 120.11 61.8125 120.565 62.1705C121.025 62.5227 121.582 62.6989 122.235 62.6989C122.917 62.6989 123.488 62.517 123.948 62.1534C124.409 61.7841 124.755 61.2812 124.988 60.6449C125.227 60.0028 125.346 59.2727 125.346 58.4545C125.346 57.642 125.23 56.9205 124.997 56.2898C124.764 55.6591 124.417 55.1648 123.957 54.8068C123.497 54.4489 122.923 54.2699 122.235 54.2699C121.576 54.2699 121.017 54.4432 120.556 54.7898C120.096 55.1364 119.747 55.6222 119.508 56.2472C119.275 56.8722 119.159 57.608 119.159 58.4545ZM130.394 65V51.9091H133.385V54.0909H133.522C133.76 53.3352 134.17 52.7528 134.749 52.3438C135.334 51.929 136.002 51.7216 136.752 51.7216C136.922 51.7216 137.113 51.7301 137.323 51.7472C137.539 51.7585 137.718 51.7784 137.86 51.8068V54.6449C137.729 54.5994 137.522 54.5597 137.238 54.5256C136.959 54.4858 136.689 54.4659 136.428 54.4659C135.866 54.4659 135.36 54.5881 134.911 54.8324C134.468 55.071 134.118 55.4034 133.863 55.8295C133.607 56.2557 133.479 56.7472 133.479 57.304V65H130.394ZM142.722 65.2642C141.893 65.2642 141.146 65.1165 140.481 64.821C139.822 64.5199 139.299 64.0767 138.913 63.4915C138.532 62.9062 138.342 62.1847 138.342 61.3267C138.342 60.5881 138.478 59.9773 138.751 59.4943C139.023 59.0114 139.396 58.625 139.867 58.3352C140.339 58.0455 140.87 57.8267 141.461 57.679C142.057 57.5256 142.674 57.4148 143.31 57.3466C144.077 57.267 144.7 57.196 145.177 57.1335C145.654 57.0653 146.001 56.9631 146.217 56.8267C146.438 56.6847 146.549 56.4659 146.549 56.1705V56.1193C146.549 55.4773 146.359 54.9801 145.978 54.6278C145.597 54.2756 145.049 54.0994 144.333 54.0994C143.577 54.0994 142.978 54.2642 142.535 54.5938C142.097 54.9233 141.802 55.3125 141.648 55.7614L138.768 55.3523C138.995 54.5568 139.37 53.892 139.893 53.358C140.415 52.8182 141.055 52.4148 141.81 52.1477C142.566 51.875 143.401 51.7386 144.316 51.7386C144.947 51.7386 145.575 51.8125 146.2 51.9602C146.825 52.108 147.396 52.3523 147.913 52.6932C148.43 53.0284 148.844 53.4858 149.157 54.0653C149.475 54.6449 149.634 55.3693 149.634 56.2386V65H146.668V63.2017H146.566C146.379 63.5653 146.114 63.9062 145.773 64.2244C145.438 64.5369 145.015 64.7898 144.504 64.983C143.998 65.1705 143.404 65.2642 142.722 65.2642ZM143.523 62.9972C144.143 62.9972 144.68 62.875 145.134 62.6307C145.589 62.3807 145.938 62.0511 146.182 61.642C146.432 61.233 146.557 60.7869 146.557 60.304V58.7614C146.461 58.8409 146.296 58.9148 146.063 58.983C145.836 59.0511 145.58 59.1108 145.296 59.1619C145.012 59.2131 144.731 59.2585 144.452 59.2983C144.174 59.3381 143.932 59.3722 143.728 59.4006C143.268 59.4631 142.856 59.5653 142.492 59.7074C142.129 59.8494 141.842 60.0483 141.631 60.304C141.421 60.554 141.316 60.8778 141.316 61.2756C141.316 61.8438 141.523 62.2727 141.938 62.5625C142.353 62.8523 142.881 62.9972 143.523 62.9972ZM152.016 65V51.9091H155.008V54.0909H155.144C155.383 53.3352 155.792 52.7528 156.372 52.3438C156.957 51.929 157.624 51.7216 158.374 51.7216C158.545 51.7216 158.735 51.7301 158.945 51.7472C159.161 51.7585 159.34 51.7784 159.482 51.8068V54.6449C159.352 54.5994 159.144 54.5597 158.86 54.5256C158.582 54.4858 158.312 54.4659 158.051 54.4659C157.488 54.4659 156.982 54.5881 156.534 54.8324C156.09 55.071 155.741 55.4034 155.485 55.8295C155.23 56.2557 155.102 56.7472 155.102 57.304V65H152.016ZM163.128 69.9091C162.708 69.9091 162.318 69.875 161.961 69.8068C161.608 69.7443 161.327 69.6705 161.117 69.5852L161.833 67.1818C162.282 67.3125 162.682 67.375 163.034 67.3693C163.387 67.3636 163.696 67.2528 163.963 67.0369C164.236 66.8267 164.466 66.4744 164.654 65.9801L164.918 65.2727L160.171 51.9091H163.443L166.461 61.7955H166.597L169.622 51.9091H172.904L167.662 66.5852C167.418 67.2784 167.094 67.8722 166.691 68.3665C166.287 68.8665 165.793 69.2472 165.208 69.5085C164.628 69.7756 163.935 69.9091 163.128 69.9091Z" fill="#F3F5F7" style="fill:#F3F5F7;fill:color(display-p3 0.9547 0.9620 0.9668);fill-opacity:1;"/>
<g clip-path="url(#clip1_2001_3171)">
<path d="M440 55.9927C440 56.6928 440.586 57.2641 441.271 57.2641H450.514V66.5071C450.514 67.1928 451.086 67.7784 451.786 67.7784C452.486 67.7784 453.071 67.1928 453.071 66.5071V57.2641H462.3C462.986 57.2641 463.571 56.6928 463.571 55.9927C463.571 55.2927 462.986 54.707 462.3 54.707H453.071V45.4785C453.071 44.7927 452.486 44.207 451.786 44.207C451.086 44.207 450.514 44.7927 450.514 45.4785V54.707H441.271C440.586 54.707 440 55.2927 440 55.9927Z" fill="#E8ECEF" style="fill:#E8ECEF;fill:color(display-p3 0.9103 0.9267 0.9377);fill-opacity:1;"/>
</g>
<mask id="path-9-inside-1_2001_3171" fill="white">
<path d="M0 112H496V190H0V112Z"/>
</mask>
<path d="M0 113H496V111H0V113ZM496 189H0V191H496V189Z" fill="white" fill-opacity="0.1" style="fill:white;fill-opacity:0.1;" mask="url(#path-9-inside-1_2001_3171)"/>
<path d="M45.679 148.185H43.4631C43.3778 147.711 43.2192 147.295 42.9872 146.935C42.7552 146.575 42.4711 146.269 42.1349 146.018C41.7988 145.768 41.4223 145.578 41.0057 145.45C40.5938 145.322 40.1558 145.259 39.6918 145.259C38.8537 145.259 38.1032 145.469 37.4403 145.891C36.7822 146.312 36.2614 146.93 35.8778 147.744C35.4991 148.559 35.3097 149.553 35.3097 150.727C35.3097 151.911 35.4991 152.91 35.8778 153.724C36.2614 154.539 36.7846 155.154 37.4474 155.571C38.1103 155.988 38.8561 156.196 39.6847 156.196C40.1439 156.196 40.5795 156.134 40.9915 156.011C41.4081 155.884 41.7846 155.696 42.1207 155.45C42.4569 155.204 42.741 154.903 42.973 154.548C43.2098 154.188 43.3731 153.777 43.4631 153.312L45.679 153.32C45.5606 154.035 45.331 154.693 44.9901 155.294C44.6539 155.891 44.2206 156.407 43.6903 156.842C43.1648 157.273 42.5634 157.607 41.8864 157.844C41.2093 158.08 40.4706 158.199 39.6705 158.199C38.411 158.199 37.2888 157.901 36.304 157.304C35.3191 156.703 34.5426 155.843 33.9744 154.726C33.411 153.608 33.1293 152.276 33.1293 150.727C33.1293 149.174 33.4134 147.841 33.9815 146.729C34.5497 145.611 35.3262 144.754 36.3111 144.158C37.2959 143.556 38.4157 143.256 39.6705 143.256C40.4422 143.256 41.1619 143.367 41.8295 143.589C42.5019 143.807 43.1056 144.129 43.6406 144.555C44.1757 144.977 44.6184 145.493 44.9688 146.104C45.3191 146.71 45.5559 147.403 45.679 148.185ZM48.1346 158V147.091H50.1871V148.824H50.3008C50.4996 148.237 50.85 147.775 51.3519 147.439C51.8585 147.098 52.4315 146.928 53.0707 146.928C53.2032 146.928 53.3595 146.932 53.5394 146.942C53.7241 146.951 53.8685 146.963 53.9727 146.977V149.009C53.8874 148.985 53.7359 148.959 53.5181 148.93C53.3003 148.897 53.0825 148.881 52.8647 148.881C52.3628 148.881 51.9154 148.987 51.5224 149.2C51.1341 149.409 50.8263 149.7 50.5991 150.074C50.3718 150.443 50.2582 150.865 50.2582 151.338V158H48.1346ZM60.1214 158.22C59.0466 158.22 58.121 157.991 57.3445 157.531C56.5727 157.067 55.9761 156.416 55.5547 155.578C55.138 154.735 54.9297 153.748 54.9297 152.616C54.9297 151.499 55.138 150.514 55.5547 149.662C55.9761 148.81 56.5632 148.144 57.3161 147.666C58.0736 147.188 58.959 146.949 59.9723 146.949C60.5878 146.949 61.1844 147.051 61.7621 147.254C62.3397 147.458 62.8582 147.777 63.3175 148.213C63.7768 148.649 64.139 149.214 64.4041 149.911C64.6693 150.602 64.8018 151.442 64.8018 152.432V153.185H56.13V151.594H62.7209C62.7209 151.035 62.6072 150.54 62.38 150.109C62.1527 149.674 61.8331 149.33 61.4212 149.08C61.014 148.829 60.5357 148.703 59.9865 148.703C59.3899 148.703 58.8691 148.85 58.424 149.143C57.9837 149.432 57.6428 149.811 57.4013 150.28C57.1645 150.744 57.0462 151.248 57.0462 151.793V153.036C57.0462 153.765 57.174 154.385 57.4297 154.896C57.6901 155.408 58.0523 155.798 58.5163 156.068C58.9804 156.333 59.5225 156.466 60.1428 156.466C60.5452 156.466 60.9122 156.409 61.2436 156.295C61.575 156.177 61.8615 156.002 62.103 155.77C62.3445 155.538 62.5291 155.251 62.657 154.911L64.6669 155.273C64.5059 155.865 64.2171 156.383 63.8004 156.828C63.3885 157.268 62.87 157.612 62.245 157.858C61.6248 158.099 60.9169 158.22 60.1214 158.22ZM70.3327 158.241C69.6415 158.241 69.0165 158.114 68.4577 157.858C67.899 157.598 67.4563 157.221 67.1296 156.729C66.8076 156.236 66.6467 155.633 66.6467 154.918C66.6467 154.302 66.765 153.795 67.0018 153.398C67.2385 153 67.5581 152.685 67.9606 152.453C68.363 152.221 68.8129 152.046 69.31 151.928C69.8072 151.809 70.3138 151.719 70.8299 151.658C71.4833 151.582 72.0136 151.52 72.4208 151.473C72.828 151.421 73.1239 151.338 73.3086 151.224C73.4933 151.111 73.5856 150.926 73.5856 150.67V150.621C73.5856 150 73.4104 149.52 73.06 149.179C72.7144 148.838 72.1983 148.668 71.5117 148.668C70.7968 148.668 70.2333 148.826 69.8214 149.143C69.4142 149.456 69.1325 149.804 68.9762 150.188L66.9805 149.733C67.2172 149.07 67.5629 148.535 68.0174 148.128C68.4767 147.716 69.0046 147.418 69.6012 147.233C70.1978 147.044 70.8252 146.949 71.4833 146.949C71.9189 146.949 72.3806 147.001 72.8683 147.105C73.3607 147.205 73.82 147.389 74.2461 147.659C74.677 147.929 75.0297 148.315 75.3043 148.817C75.579 149.314 75.7163 149.96 75.7163 150.756V158H73.6424V156.509H73.5572C73.4199 156.783 73.2139 157.053 72.9393 157.318C72.6647 157.583 72.3119 157.804 71.881 157.979C71.4502 158.154 70.9341 158.241 70.3327 158.241ZM70.7944 156.537C71.3815 156.537 71.8834 156.421 72.3001 156.189C72.7215 155.957 73.0411 155.654 73.2589 155.28C73.4814 154.901 73.5927 154.496 73.5927 154.065V152.659C73.5169 152.735 73.3701 152.806 73.1523 152.872C72.9393 152.934 72.6954 152.988 72.4208 153.036C72.1462 153.078 71.8787 153.118 71.6183 153.156C71.3578 153.189 71.14 153.218 70.9648 153.241C70.5529 153.294 70.1765 153.381 69.8356 153.504C69.4994 153.627 69.2295 153.805 69.0259 154.037C68.8271 154.264 68.7276 154.567 68.7276 154.946C68.7276 155.472 68.9218 155.869 69.31 156.139C69.6983 156.404 70.1931 156.537 70.7944 156.537ZM83.6371 147.091V148.795H77.6783V147.091H83.6371ZM79.2763 144.477H81.3999V154.797C81.3999 155.209 81.4614 155.519 81.5845 155.727C81.7076 155.931 81.8662 156.071 82.0604 156.146C82.2592 156.217 82.4747 156.253 82.7067 156.253C82.8771 156.253 83.0263 156.241 83.1541 156.217C83.282 156.194 83.3814 156.175 83.4524 156.161L83.8359 157.915C83.7128 157.962 83.5376 158.009 83.3104 158.057C83.0831 158.109 82.799 158.137 82.4581 158.142C81.8994 158.152 81.3786 158.052 80.8956 157.844C80.4126 157.635 80.022 157.313 79.7237 156.878C79.4254 156.442 79.2763 155.895 79.2763 155.237V144.477ZM90.5707 158.22C89.4959 158.22 88.5702 157.991 87.7937 157.531C87.0219 157.067 86.4253 156.416 86.0039 155.578C85.5872 154.735 85.3789 153.748 85.3789 152.616C85.3789 151.499 85.5872 150.514 86.0039 149.662C86.4253 148.81 87.0124 148.144 87.7653 147.666C88.5228 147.188 89.4083 146.949 90.4215 146.949C91.0371 146.949 91.6336 147.051 92.2113 147.254C92.7889 147.458 93.3074 147.777 93.7667 148.213C94.226 148.649 94.5882 149.214 94.8533 149.911C95.1185 150.602 95.2511 151.442 95.2511 152.432V153.185H86.5792V151.594H93.1701C93.1701 151.035 93.0565 150.54 92.8292 150.109C92.6019 149.674 92.2823 149.33 91.8704 149.08C91.4632 148.829 90.985 148.703 90.4357 148.703C89.8391 148.703 89.3183 148.85 88.8732 149.143C88.4329 149.432 88.092 149.811 87.8505 150.28C87.6138 150.744 87.4954 151.248 87.4954 151.793V153.036C87.4954 153.765 87.6232 154.385 87.8789 154.896C88.1393 155.408 88.5015 155.798 88.9656 156.068C89.4296 156.333 89.9717 156.466 90.592 156.466C90.9944 156.466 91.3614 156.409 91.6928 156.295C92.0243 156.177 92.3107 156.002 92.5522 155.77C92.7937 155.538 92.9783 155.251 93.1062 154.911L95.1161 155.273C94.9551 155.865 94.6663 156.383 94.2496 156.828C93.8377 157.268 93.3192 157.612 92.6942 157.858C92.074 158.099 91.3661 158.22 90.5707 158.22ZM104.342 143.455L108.39 155.301H108.554L112.602 143.455H114.974L109.74 158H107.204L101.97 143.455H104.342ZM123.815 153.476V147.091H125.945V158H123.857V156.111H123.744C123.493 156.693 123.09 157.179 122.536 157.567C121.987 157.95 121.303 158.142 120.484 158.142C119.783 158.142 119.163 157.988 118.623 157.68C118.088 157.368 117.666 156.906 117.359 156.295C117.056 155.685 116.904 154.929 116.904 154.03V147.091H119.028V153.774C119.028 154.518 119.234 155.109 119.646 155.55C120.058 155.99 120.593 156.21 121.251 156.21C121.648 156.21 122.044 156.111 122.437 155.912C122.835 155.713 123.164 155.412 123.424 155.01C123.689 154.607 123.819 154.096 123.815 153.476ZM133.5 158.22C132.426 158.22 131.5 157.991 130.723 157.531C129.952 157.067 129.355 156.416 128.934 155.578C128.517 154.735 128.309 153.748 128.309 152.616C128.309 151.499 128.517 150.514 128.934 149.662C129.355 148.81 129.942 148.144 130.695 147.666C131.453 147.188 132.338 146.949 133.351 146.949C133.967 146.949 134.563 147.051 135.141 147.254C135.719 147.458 136.237 147.777 136.696 148.213C137.156 148.649 137.518 149.214 137.783 149.911C138.048 150.602 138.181 151.442 138.181 152.432V153.185H129.509V151.594H136.1C136.1 151.035 135.986 150.54 135.759 150.109C135.532 149.674 135.212 149.33 134.8 149.08C134.393 148.829 133.915 148.703 133.365 148.703C132.769 148.703 132.248 148.85 131.803 149.143C131.363 149.432 131.022 149.811 130.78 150.28C130.543 150.744 130.425 151.248 130.425 151.793V153.036C130.425 153.765 130.553 154.385 130.809 154.896C131.069 155.408 131.431 155.798 131.895 156.068C132.359 156.333 132.901 156.466 133.522 156.466C133.924 156.466 134.291 156.409 134.623 156.295C134.954 156.177 135.24 156.002 135.482 155.77C135.723 155.538 135.908 155.251 136.036 154.911L138.046 155.273C137.885 155.865 137.596 156.383 137.179 156.828C136.767 157.268 136.249 157.612 135.624 157.858C135.004 158.099 134.296 158.22 133.5 158.22ZM147.229 158H144.9L150.134 143.455H152.669L157.904 158H155.574L151.462 146.097H151.348L147.229 158ZM147.62 152.304H155.176V154.151H147.62V152.304ZM159.834 162.091V147.091H161.908V148.859H162.085C162.208 148.632 162.386 148.369 162.618 148.071C162.85 147.773 163.172 147.512 163.584 147.29C163.996 147.062 164.54 146.949 165.217 146.949C166.098 146.949 166.884 147.171 167.575 147.616C168.267 148.062 168.809 148.703 169.202 149.541C169.599 150.379 169.798 151.388 169.798 152.567C169.798 153.746 169.602 154.757 169.209 155.599C168.816 156.437 168.276 157.084 167.589 157.538C166.903 157.988 166.119 158.213 165.239 158.213C164.576 158.213 164.034 158.102 163.612 157.879C163.196 157.657 162.869 157.396 162.632 157.098C162.395 156.8 162.213 156.535 162.085 156.303H161.957V162.091H159.834ZM161.915 152.545C161.915 153.312 162.026 153.985 162.249 154.562C162.471 155.14 162.793 155.592 163.214 155.919C163.636 156.241 164.152 156.402 164.763 156.402C165.397 156.402 165.928 156.234 166.354 155.898C166.78 155.557 167.102 155.095 167.32 154.513C167.542 153.93 167.653 153.275 167.653 152.545C167.653 151.826 167.545 151.179 167.327 150.607C167.114 150.034 166.792 149.581 166.361 149.25C165.935 148.919 165.402 148.753 164.763 148.753C164.147 148.753 163.626 148.911 163.2 149.229C162.779 149.546 162.459 149.989 162.241 150.557C162.024 151.125 161.915 151.788 161.915 152.545ZM172.178 162.091V147.091H174.251V148.859H174.429C174.552 148.632 174.73 148.369 174.962 148.071C175.194 147.773 175.516 147.512 175.928 147.29C176.339 147.062 176.884 146.949 177.561 146.949C178.442 146.949 179.228 147.171 179.919 147.616C180.61 148.062 181.152 148.703 181.545 149.541C181.943 150.379 182.142 151.388 182.142 152.567C182.142 153.746 181.946 154.757 181.553 155.599C181.16 156.437 180.62 157.084 179.933 157.538C179.247 157.988 178.463 158.213 177.582 158.213C176.92 158.213 176.377 158.102 175.956 157.879C175.539 157.657 175.213 157.396 174.976 157.098C174.739 156.8 174.557 156.535 174.429 156.303H174.301V162.091H172.178ZM174.259 152.545C174.259 153.312 174.37 153.985 174.592 154.562C174.815 155.14 175.137 155.592 175.558 155.919C175.98 156.241 176.496 156.402 177.107 156.402C177.741 156.402 178.271 156.234 178.697 155.898C179.124 155.557 179.446 155.095 179.663 154.513C179.886 153.93 179.997 153.275 179.997 152.545C179.997 151.826 179.888 151.179 179.67 150.607C179.457 150.034 179.135 149.581 178.705 149.25C178.278 148.919 177.746 148.753 177.107 148.753C176.491 148.753 175.97 148.911 175.544 149.229C175.123 149.546 174.803 149.989 174.585 150.557C174.367 151.125 174.259 151.788 174.259 152.545Z" fill="url(#paint1_linear_2001_3171)" style=""/>
<g clip-path="url(#clip2_2001_3171)">
<path d="M451.803 158.233C452.143 158.233 452.482 158.097 452.713 157.839L463.226 147.068C463.457 146.837 463.593 146.538 463.593 146.199C463.593 145.492 463.063 144.949 462.357 144.949C462.017 144.949 461.705 145.085 461.474 145.302L451.07 155.937H452.523L442.119 145.302C441.902 145.085 441.589 144.949 441.236 144.949C440.53 144.949 440 145.492 440 146.199C440 146.538 440.136 146.837 440.367 147.081L450.879 157.839C451.138 158.097 451.45 158.233 451.803 158.233Z" fill="#E8ECEF" style="fill:#E8ECEF;fill:color(display-p3 0.9103 0.9267 0.9377);fill-opacity:1;"/>
</g>
<mask id="path-13-inside-2_2001_3171" fill="white">
<path d="M0 190H496V268H0V190Z"/>
</mask>
<path d="M0 191H496V189H0V191ZM496 267H0V269H496V267Z" fill="white" fill-opacity="0.1" style="fill:white;fill-opacity:0.1;" mask="url(#path-13-inside-2_2001_3171)"/>
<path d="M45.679 226.185H43.4631C43.3778 225.711 43.2192 225.295 42.9872 224.935C42.7552 224.575 42.4711 224.269 42.1349 224.018C41.7988 223.768 41.4223 223.578 41.0057 223.45C40.5938 223.322 40.1558 223.259 39.6918 223.259C38.8537 223.259 38.1032 223.469 37.4403 223.891C36.7822 224.312 36.2614 224.93 35.8778 225.744C35.4991 226.559 35.3097 227.553 35.3097 228.727C35.3097 229.911 35.4991 230.91 35.8778 231.724C36.2614 232.539 36.7846 233.154 37.4474 233.571C38.1103 233.988 38.8561 234.196 39.6847 234.196C40.1439 234.196 40.5795 234.134 40.9915 234.011C41.4081 233.884 41.7846 233.696 42.1207 233.45C42.4569 233.204 42.741 232.903 42.973 232.548C43.2098 232.188 43.3731 231.777 43.4631 231.312L45.679 231.32C45.5606 232.035 45.331 232.693 44.9901 233.294C44.6539 233.891 44.2206 234.407 43.6903 234.842C43.1648 235.273 42.5634 235.607 41.8864 235.844C41.2093 236.08 40.4706 236.199 39.6705 236.199C38.411 236.199 37.2888 235.901 36.304 235.304C35.3191 234.703 34.5426 233.843 33.9744 232.726C33.411 231.608 33.1293 230.276 33.1293 228.727C33.1293 227.174 33.4134 225.841 33.9815 224.729C34.5497 223.611 35.3262 222.754 36.3111 222.158C37.2959 221.556 38.4157 221.256 39.6705 221.256C40.4422 221.256 41.1619 221.367 41.8295 221.589C42.5019 221.807 43.1056 222.129 43.6406 222.555C44.1757 222.977 44.6184 223.493 44.9688 224.104C45.3191 224.71 45.5559 225.403 45.679 226.185ZM48.1346 236V225.091H50.1871V226.824H50.3008C50.4996 226.237 50.85 225.775 51.3519 225.439C51.8585 225.098 52.4315 224.928 53.0707 224.928C53.2032 224.928 53.3595 224.932 53.5394 224.942C53.7241 224.951 53.8685 224.963 53.9727 224.977V227.009C53.8874 226.985 53.7359 226.959 53.5181 226.93C53.3003 226.897 53.0825 226.881 52.8647 226.881C52.3628 226.881 51.9154 226.987 51.5224 227.2C51.1341 227.409 50.8263 227.7 50.5991 228.074C50.3718 228.443 50.2582 228.865 50.2582 229.338V236H48.1346ZM60.1214 236.22C59.0466 236.22 58.121 235.991 57.3445 235.531C56.5727 235.067 55.9761 234.416 55.5547 233.578C55.138 232.735 54.9297 231.748 54.9297 230.616C54.9297 229.499 55.138 228.514 55.5547 227.662C55.9761 226.81 56.5632 226.144 57.3161 225.666C58.0736 225.188 58.959 224.949 59.9723 224.949C60.5878 224.949 61.1844 225.051 61.7621 225.254C62.3397 225.458 62.8582 225.777 63.3175 226.213C63.7768 226.649 64.139 227.214 64.4041 227.911C64.6693 228.602 64.8018 229.442 64.8018 230.432V231.185H56.13V229.594H62.7209C62.7209 229.035 62.6072 228.54 62.38 228.109C62.1527 227.674 61.8331 227.33 61.4212 227.08C61.014 226.829 60.5357 226.703 59.9865 226.703C59.3899 226.703 58.8691 226.85 58.424 227.143C57.9837 227.432 57.6428 227.811 57.4013 228.28C57.1645 228.744 57.0462 229.248 57.0462 229.793V231.036C57.0462 231.765 57.174 232.385 57.4297 232.896C57.6901 233.408 58.0523 233.798 58.5163 234.068C58.9804 234.333 59.5225 234.466 60.1428 234.466C60.5452 234.466 60.9122 234.409 61.2436 234.295C61.575 234.177 61.8615 234.002 62.103 233.77C62.3445 233.538 62.5291 233.251 62.657 232.911L64.6669 233.273C64.5059 233.865 64.2171 234.383 63.8004 234.828C63.3885 235.268 62.87 235.612 62.245 235.858C61.6248 236.099 60.9169 236.22 60.1214 236.22ZM70.3327 236.241C69.6415 236.241 69.0165 236.114 68.4577 235.858C67.899 235.598 67.4563 235.221 67.1296 234.729C66.8076 234.236 66.6467 233.633 66.6467 232.918C66.6467 232.302 66.765 231.795 67.0018 231.398C67.2385 231 67.5581 230.685 67.9606 230.453C68.363 230.221 68.8129 230.046 69.31 229.928C69.8072 229.809 70.3138 229.719 70.8299 229.658C71.4833 229.582 72.0136 229.52 72.4208 229.473C72.828 229.421 73.1239 229.338 73.3086 229.224C73.4933 229.111 73.5856 228.926 73.5856 228.67V228.621C73.5856 228 73.4104 227.52 73.06 227.179C72.7144 226.838 72.1983 226.668 71.5117 226.668C70.7968 226.668 70.2333 226.826 69.8214 227.143C69.4142 227.456 69.1325 227.804 68.9762 228.188L66.9805 227.733C67.2172 227.07 67.5629 226.535 68.0174 226.128C68.4767 225.716 69.0046 225.418 69.6012 225.233C70.1978 225.044 70.8252 224.949 71.4833 224.949C71.9189 224.949 72.3806 225.001 72.8683 225.105C73.3607 225.205 73.82 225.389 74.2461 225.659C74.677 225.929 75.0297 226.315 75.3043 226.817C75.579 227.314 75.7163 227.96 75.7163 228.756V236H73.6424V234.509H73.5572C73.4199 234.783 73.2139 235.053 72.9393 235.318C72.6647 235.583 72.3119 235.804 71.881 235.979C71.4502 236.154 70.9341 236.241 70.3327 236.241ZM70.7944 234.537C71.3815 234.537 71.8834 234.421 72.3001 234.189C72.7215 233.957 73.0411 233.654 73.2589 233.28C73.4814 232.901 73.5927 232.496 73.5927 232.065V230.659C73.5169 230.735 73.3701 230.806 73.1523 230.872C72.9393 230.934 72.6954 230.988 72.4208 231.036C72.1462 231.078 71.8787 231.118 71.6183 231.156C71.3578 231.189 71.14 231.218 70.9648 231.241C70.5529 231.294 70.1765 231.381 69.8356 231.504C69.4994 231.627 69.2295 231.805 69.0259 232.037C68.8271 232.264 68.7276 232.567 68.7276 232.946C68.7276 233.472 68.9218 233.869 69.31 234.139C69.6983 234.404 70.1931 234.537 70.7944 234.537ZM83.6371 225.091V226.795H77.6783V225.091H83.6371ZM79.2763 222.477H81.3999V232.797C81.3999 233.209 81.4614 233.519 81.5845 233.727C81.7076 233.931 81.8662 234.071 82.0604 234.146C82.2592 234.217 82.4747 234.253 82.7067 234.253C82.8771 234.253 83.0263 234.241 83.1541 234.217C83.282 234.194 83.3814 234.175 83.4524 234.161L83.8359 235.915C83.7128 235.962 83.5376 236.009 83.3104 236.057C83.0831 236.109 82.799 236.137 82.4581 236.142C81.8994 236.152 81.3786 236.052 80.8956 235.844C80.4126 235.635 80.022 235.313 79.7237 234.878C79.4254 234.442 79.2763 233.895 79.2763 233.237V222.477ZM90.5707 236.22C89.4959 236.22 88.5702 235.991 87.7937 235.531C87.0219 235.067 86.4253 234.416 86.0039 233.578C85.5872 232.735 85.3789 231.748 85.3789 230.616C85.3789 229.499 85.5872 228.514 86.0039 227.662C86.4253 226.81 87.0124 226.144 87.7653 225.666C88.5228 225.188 89.4083 224.949 90.4215 224.949C91.0371 224.949 91.6336 225.051 92.2113 225.254C92.7889 225.458 93.3074 225.777 93.7667 226.213C94.226 226.649 94.5882 227.214 94.8533 227.911C95.1185 228.602 95.2511 229.442 95.2511 230.432V231.185H86.5792V229.594H93.1701C93.1701 229.035 93.0565 228.54 92.8292 228.109C92.6019 227.674 92.2823 227.33 91.8704 227.08C91.4632 226.829 90.985 226.703 90.4357 226.703C89.8391 226.703 89.3183 226.85 88.8732 227.143C88.4329 227.432 88.092 227.811 87.8505 228.28C87.6138 228.744 87.4954 229.248 87.4954 229.793V231.036C87.4954 231.765 87.6232 232.385 87.8789 232.896C88.1393 233.408 88.5015 233.798 88.9656 234.068C89.4296 234.333 89.9717 234.466 90.592 234.466C90.9944 234.466 91.3614 234.409 91.6928 234.295C92.0243 234.177 92.3107 234.002 92.5522 233.77C92.7937 233.538 92.9783 233.251 93.1062 232.911L95.1161 233.273C94.9551 233.865 94.6663 234.383 94.2496 234.828C93.8377 235.268 93.3192 235.612 92.6942 235.858C92.074 236.099 91.3661 236.22 90.5707 236.22ZM104.342 221.455L108.39 233.301H108.554L112.602 221.455H114.974L109.74 236H107.204L101.97 221.455H104.342ZM123.815 231.476V225.091H125.945V236H123.857V234.111H123.744C123.493 234.693 123.09 235.179 122.536 235.567C121.987 235.95 121.303 236.142 120.484 236.142C119.783 236.142 119.163 235.988 118.623 235.68C118.088 235.368 117.666 234.906 117.359 234.295C117.056 233.685 116.904 232.929 116.904 232.03V225.091H119.028V231.774C119.028 232.518 119.234 233.109 119.646 233.55C120.058 233.99 120.593 234.21 121.251 234.21C121.648 234.21 122.044 234.111 122.437 233.912C122.835 233.713 123.164 233.412 123.424 233.01C123.689 232.607 123.819 232.096 123.815 231.476ZM133.5 236.22C132.426 236.22 131.5 235.991 130.723 235.531C129.952 235.067 129.355 234.416 128.934 233.578C128.517 232.735 128.309 231.748 128.309 230.616C128.309 229.499 128.517 228.514 128.934 227.662C129.355 226.81 129.942 226.144 130.695 225.666C131.453 225.188 132.338 224.949 133.351 224.949C133.967 224.949 134.563 225.051 135.141 225.254C135.719 225.458 136.237 225.777 136.696 226.213C137.156 226.649 137.518 227.214 137.783 227.911C138.048 228.602 138.181 229.442 138.181 230.432V231.185H129.509V229.594H136.1C136.1 229.035 135.986 228.54 135.759 228.109C135.532 227.674 135.212 227.33 134.8 227.08C134.393 226.829 133.915 226.703 133.365 226.703C132.769 226.703 132.248 226.85 131.803 227.143C131.363 227.432 131.022 227.811 130.78 228.28C130.543 228.744 130.425 229.248 130.425 229.793V231.036C130.425 231.765 130.553 232.385 130.809 232.896C131.069 233.408 131.431 233.798 131.895 234.068C132.359 234.333 132.901 234.466 133.522 234.466C133.924 234.466 134.291 234.409 134.623 234.295C134.954 234.177 135.24 234.002 135.482 233.77C135.723 233.538 135.908 233.251 136.036 232.911L138.046 233.273C137.885 233.865 137.596 234.383 137.179 234.828C136.767 235.268 136.249 235.612 135.624 235.858C135.004 236.099 134.296 236.22 133.5 236.22ZM147.229 236H144.9L150.134 221.455H152.669L157.904 236H155.574L151.462 224.097H151.348L147.229 236ZM147.62 230.304H155.176V232.151H147.62V230.304ZM159.834 240.091V225.091H161.908V226.859H162.085C162.208 226.632 162.386 226.369 162.618 226.071C162.85 225.773 163.172 225.512 163.584 225.29C163.996 225.062 164.54 224.949 165.217 224.949C166.098 224.949 166.884 225.171 167.575 225.616C168.267 226.062 168.809 226.703 169.202 227.541C169.599 228.379 169.798 229.388 169.798 230.567C169.798 231.746 169.602 232.757 169.209 233.599C168.816 234.437 168.276 235.084 167.589 235.538C166.903 235.988 166.119 236.213 165.239 236.213C164.576 236.213 164.034 236.102 163.612 235.879C163.196 235.657 162.869 235.396 162.632 235.098C162.395 234.8 162.213 234.535 162.085 234.303H161.957V240.091H159.834ZM161.915 230.545C161.915 231.312 162.026 231.985 162.249 232.562C162.471 233.14 162.793 233.592 163.214 233.919C163.636 234.241 164.152 234.402 164.763 234.402C165.397 234.402 165.928 234.234 166.354 233.898C166.78 233.557 167.102 233.095 167.32 232.513C167.542 231.93 167.653 231.275 167.653 230.545C167.653 229.826 167.545 229.179 167.327 228.607C167.114 228.034 166.792 227.581 166.361 227.25C165.935 226.919 165.402 226.753 164.763 226.753C164.147 226.753 163.626 226.911 163.2 227.229C162.779 227.546 162.459 227.989 162.241 228.557C162.024 229.125 161.915 229.788 161.915 230.545ZM172.178 240.091V225.091H174.251V226.859H174.429C174.552 226.632 174.73 226.369 174.962 226.071C175.194 225.773 175.516 225.512 175.928 225.29C176.339 225.062 176.884 224.949 177.561 224.949C178.442 224.949 179.228 225.171 179.919 225.616C180.61 226.062 181.152 226.703 181.545 227.541C181.943 228.379 182.142 229.388 182.142 230.567C182.142 231.746 181.946 232.757 181.553 233.599C181.16 234.437 180.62 235.084 179.933 235.538C179.247 235.988 178.463 236.213 177.582 236.213C176.92 236.213 176.377 236.102 175.956 235.879C175.539 235.657 175.213 235.396 174.976 235.098C174.739 234.8 174.557 234.535 174.429 234.303H174.301V240.091H172.178ZM174.259 230.545C174.259 231.312 174.37 231.985 174.592 232.562C174.815 233.14 175.137 233.592 175.558 233.919C175.98 234.241 176.496 234.402 177.107 234.402C177.741 234.402 178.271 234.234 178.697 233.898C179.124 233.557 179.446 233.095 179.663 232.513C179.886 231.93 179.997 231.275 179.997 230.545C179.997 229.826 179.888 229.179 179.67 228.607C179.457 228.034 179.135 227.581 178.705 227.25C178.278 226.919 177.746 226.753 177.107 226.753C176.491 226.753 175.97 226.911 175.544 227.229C175.123 227.546 174.803 227.989 174.585 228.557C174.367 229.125 174.259 229.788 174.259 230.545Z" fill="url(#paint2_linear_2001_3171)" style=""/>
<g clip-path="url(#clip3_2001_3171)">
<path d="M451.803 236.233C452.143 236.233 452.482 236.097 452.713 235.839L463.226 225.068C463.457 224.837 463.593 224.538 463.593 224.199C463.593 223.492 463.063 222.949 462.357 222.949C462.017 222.949 461.705 223.085 461.474 223.302L451.07 233.937H452.523L442.119 223.302C441.902 223.085 441.589 222.949 441.236 222.949C440.53 222.949 440 223.492 440 224.199C440 224.538 440.136 224.837 440.367 225.081L450.879 235.839C451.138 236.097 451.45 236.233 451.803 236.233Z" fill="#E8ECEF" style="fill:#E8ECEF;fill:color(display-p3 0.9103 0.9267 0.9377);fill-opacity:1;"/>
</g>
<mask id="path-17-inside-3_2001_3171" fill="white">
<path d="M0 268H496V346H0V268Z"/>
</mask>
<path d="M0 269H496V267H0V269ZM496 345H0V347H496V345Z" fill="white" fill-opacity="0.1" style="fill:white;fill-opacity:0.1;" mask="url(#path-17-inside-3_2001_3171)"/>
<path d="M45.679 304.185H43.4631C43.3778 303.711 43.2192 303.295 42.9872 302.935C42.7552 302.575 42.4711 302.269 42.1349 302.018C41.7988 301.768 41.4223 301.578 41.0057 301.45C40.5938 301.322 40.1558 301.259 39.6918 301.259C38.8537 301.259 38.1032 301.469 37.4403 301.891C36.7822 302.312 36.2614 302.93 35.8778 303.744C35.4991 304.559 35.3097 305.553 35.3097 306.727C35.3097 307.911 35.4991 308.91 35.8778 309.724C36.2614 310.539 36.7846 311.154 37.4474 311.571C38.1103 311.988 38.8561 312.196 39.6847 312.196C40.1439 312.196 40.5795 312.134 40.9915 312.011C41.4081 311.884 41.7846 311.696 42.1207 311.45C42.4569 311.204 42.741 310.903 42.973 310.548C43.2098 310.188 43.3731 309.777 43.4631 309.312L45.679 309.32C45.5606 310.035 45.331 310.693 44.9901 311.294C44.6539 311.891 44.2206 312.407 43.6903 312.842C43.1648 313.273 42.5634 313.607 41.8864 313.844C41.2093 314.08 40.4706 314.199 39.6705 314.199C38.411 314.199 37.2888 313.901 36.304 313.304C35.3191 312.703 34.5426 311.843 33.9744 310.726C33.411 309.608 33.1293 308.276 33.1293 306.727C33.1293 305.174 33.4134 303.841 33.9815 302.729C34.5497 301.611 35.3262 300.754 36.3111 300.158C37.2959 299.556 38.4157 299.256 39.6705 299.256C40.4422 299.256 41.1619 299.367 41.8295 299.589C42.5019 299.807 43.1056 300.129 43.6406 300.555C44.1757 300.977 44.6184 301.493 44.9688 302.104C45.3191 302.71 45.5559 303.403 45.679 304.185ZM48.1346 314V303.091H50.1871V304.824H50.3008C50.4996 304.237 50.85 303.775 51.3519 303.439C51.8585 303.098 52.4315 302.928 53.0707 302.928C53.2032 302.928 53.3595 302.932 53.5394 302.942C53.7241 302.951 53.8685 302.963 53.9727 302.977V305.009C53.8874 304.985 53.7359 304.959 53.5181 304.93C53.3003 304.897 53.0825 304.881 52.8647 304.881C52.3628 304.881 51.9154 304.987 51.5224 305.2C51.1341 305.409 50.8263 305.7 50.5991 306.074C50.3718 306.443 50.2582 306.865 50.2582 307.338V314H48.1346ZM60.1214 314.22C59.0466 314.22 58.121 313.991 57.3445 313.531C56.5727 313.067 55.9761 312.416 55.5547 311.578C55.138 310.735 54.9297 309.748 54.9297 308.616C54.9297 307.499 55.138 306.514 55.5547 305.662C55.9761 304.81 56.5632 304.144 57.3161 303.666C58.0736 303.188 58.959 302.949 59.9723 302.949C60.5878 302.949 61.1844 303.051 61.7621 303.254C62.3397 303.458 62.8582 303.777 63.3175 304.213C63.7768 304.649 64.139 305.214 64.4041 305.911C64.6693 306.602 64.8018 307.442 64.8018 308.432V309.185H56.13V307.594H62.7209C62.7209 307.035 62.6072 306.54 62.38 306.109C62.1527 305.674 61.8331 305.33 61.4212 305.08C61.014 304.829 60.5357 304.703 59.9865 304.703C59.3899 304.703 58.8691 304.85 58.424 305.143C57.9837 305.432 57.6428 305.811 57.4013 306.28C57.1645 306.744 57.0462 307.248 57.0462 307.793V309.036C57.0462 309.765 57.174 310.385 57.4297 310.896C57.6901 311.408 58.0523 311.798 58.5163 312.068C58.9804 312.333 59.5225 312.466 60.1428 312.466C60.5452 312.466 60.9122 312.409 61.2436 312.295C61.575 312.177 61.8615 312.002 62.103 311.77C62.3445 311.538 62.5291 311.251 62.657 310.911L64.6669 311.273C64.5059 311.865 64.2171 312.383 63.8004 312.828C63.3885 313.268 62.87 313.612 62.245 313.858C61.6248 314.099 60.9169 314.22 60.1214 314.22ZM70.3327 314.241C69.6415 314.241 69.0165 314.114 68.4577 313.858C67.899 313.598 67.4563 313.221 67.1296 312.729C66.8076 312.236 66.6467 311.633 66.6467 310.918C66.6467 310.302 66.765 309.795 67.0018 309.398C67.2385 309 67.5581 308.685 67.9606 308.453C68.363 308.221 68.8129 308.046 69.31 307.928C69.8072 307.809 70.3138 307.719 70.8299 307.658C71.4833 307.582 72.0136 307.52 72.4208 307.473C72.828 307.421 73.1239 307.338 73.3086 307.224C73.4933 307.111 73.5856 306.926 73.5856 306.67V306.621C73.5856 306 73.4104 305.52 73.06 305.179C72.7144 304.838 72.1983 304.668 71.5117 304.668C70.7968 304.668 70.2333 304.826 69.8214 305.143C69.4142 305.456 69.1325 305.804 68.9762 306.188L66.9805 305.733C67.2172 305.07 67.5629 304.535 68.0174 304.128C68.4767 303.716 69.0046 303.418 69.6012 303.233C70.1978 303.044 70.8252 302.949 71.4833 302.949C71.9189 302.949 72.3806 303.001 72.8683 303.105C73.3607 303.205 73.82 303.389 74.2461 303.659C74.677 303.929 75.0297 304.315 75.3043 304.817C75.579 305.314 75.7163 305.96 75.7163 306.756V314H73.6424V312.509H73.5572C73.4199 312.783 73.2139 313.053 72.9393 313.318C72.6647 313.583 72.3119 313.804 71.881 313.979C71.4502 314.154 70.9341 314.241 70.3327 314.241ZM70.7944 312.537C71.3815 312.537 71.8834 312.421 72.3001 312.189C72.7215 311.957 73.0411 311.654 73.2589 311.28C73.4814 310.901 73.5927 310.496 73.5927 310.065V308.659C73.5169 308.735 73.3701 308.806 73.1523 308.872C72.9393 308.934 72.6954 308.988 72.4208 309.036C72.1462 309.078 71.8787 309.118 71.6183 309.156C71.3578 309.189 71.14 309.218 70.9648 309.241C70.5529 309.294 70.1765 309.381 69.8356 309.504C69.4994 309.627 69.2295 309.805 69.0259 310.037C68.8271 310.264 68.7276 310.567 68.7276 310.946C68.7276 311.472 68.9218 311.869 69.31 312.139C69.6983 312.404 70.1931 312.537 70.7944 312.537ZM83.6371 303.091V304.795H77.6783V303.091H83.6371ZM79.2763 300.477H81.3999V310.797C81.3999 311.209 81.4614 311.519 81.5845 311.727C81.7076 311.931 81.8662 312.071 82.0604 312.146C82.2592 312.217 82.4747 312.253 82.7067 312.253C82.8771 312.253 83.0263 312.241 83.1541 312.217C83.282 312.194 83.3814 312.175 83.4524 312.161L83.8359 313.915C83.7128 313.962 83.5376 314.009 83.3104 314.057C83.0831 314.109 82.799 314.137 82.4581 314.142C81.8994 314.152 81.3786 314.052 80.8956 313.844C80.4126 313.635 80.022 313.313 79.7237 312.878C79.4254 312.442 79.2763 311.895 79.2763 311.237V300.477ZM90.5707 314.22C89.4959 314.22 88.5702 313.991 87.7937 313.531C87.0219 313.067 86.4253 312.416 86.0039 311.578C85.5872 310.735 85.3789 309.748 85.3789 308.616C85.3789 307.499 85.5872 306.514 86.0039 305.662C86.4253 304.81 87.0124 304.144 87.7653 303.666C88.5228 303.188 89.4083 302.949 90.4215 302.949C91.0371 302.949 91.6336 303.051 92.2113 303.254C92.7889 303.458 93.3074 303.777 93.7667 304.213C94.226 304.649 94.5882 305.214 94.8533 305.911C95.1185 306.602 95.2511 307.442 95.2511 308.432V309.185H86.5792V307.594H93.1701C93.1701 307.035 93.0565 306.54 92.8292 306.109C92.6019 305.674 92.2823 305.33 91.8704 305.08C91.4632 304.829 90.985 304.703 90.4357 304.703C89.8391 304.703 89.3183 304.85 88.8732 305.143C88.4329 305.432 88.092 305.811 87.8505 306.28C87.6138 306.744 87.4954 307.248 87.4954 307.793V309.036C87.4954 309.765 87.6232 310.385 87.8789 310.896C88.1393 311.408 88.5015 311.798 88.9656 312.068C89.4296 312.333 89.9717 312.466 90.592 312.466C90.9944 312.466 91.3614 312.409 91.6928 312.295C92.0243 312.177 92.3107 312.002 92.5522 311.77C92.7937 311.538 92.9783 311.251 93.1062 310.911L95.1161 311.273C94.9551 311.865 94.6663 312.383 94.2496 312.828C93.8377 313.268 93.3192 313.612 92.6942 313.858C92.074 314.099 91.3661 314.22 90.5707 314.22ZM104.342 299.455L108.39 311.301H108.554L112.602 299.455H114.974L109.74 314H107.204L101.97 299.455H104.342ZM123.815 309.476V303.091H125.945V314H123.857V312.111H123.744C123.493 312.693 123.09 313.179 122.536 313.567C121.987 313.95 121.303 314.142 120.484 314.142C119.783 314.142 119.163 313.988 118.623 313.68C118.088 313.368 117.666 312.906 117.359 312.295C117.056 311.685 116.904 310.929 116.904 310.03V303.091H119.028V309.774C119.028 310.518 119.234 311.109 119.646 311.55C120.058 311.99 120.593 312.21 121.251 312.21C121.648 312.21 122.044 312.111 122.437 311.912C122.835 311.713 123.164 311.412 123.424 311.01C123.689 310.607 123.819 310.096 123.815 309.476ZM133.5 314.22C132.426 314.22 131.5 313.991 130.723 313.531C129.952 313.067 129.355 312.416 128.934 311.578C128.517 310.735 128.309 309.748 128.309 308.616C128.309 307.499 128.517 306.514 128.934 305.662C129.355 304.81 129.942 304.144 130.695 303.666C131.453 303.188 132.338 302.949 133.351 302.949C133.967 302.949 134.563 303.051 135.141 303.254C135.719 303.458 136.237 303.777 136.696 304.213C137.156 304.649 137.518 305.214 137.783 305.911C138.048 306.602 138.181 307.442 138.181 308.432V309.185H129.509V307.594H136.1C136.1 307.035 135.986 306.54 135.759 306.109C135.532 305.674 135.212 305.33 134.8 305.08C134.393 304.829 133.915 304.703 133.365 304.703C132.769 304.703 132.248 304.85 131.803 305.143C131.363 305.432 131.022 305.811 130.78 306.28C130.543 306.744 130.425 307.248 130.425 307.793V309.036C130.425 309.765 130.553 310.385 130.809 310.896C131.069 311.408 131.431 311.798 131.895 312.068C132.359 312.333 132.901 312.466 133.522 312.466C133.924 312.466 134.291 312.409 134.623 312.295C134.954 312.177 135.24 312.002 135.482 311.77C135.723 311.538 135.908 311.251 136.036 310.911L138.046 311.273C137.885 311.865 137.596 312.383 137.179 312.828C136.767 313.268 136.249 313.612 135.624 313.858C135.004 314.099 134.296 314.22 133.5 314.22ZM147.229 314H144.9L150.134 299.455H152.669L157.904 314H155.574L151.462 302.097H151.348L147.229 314ZM147.62 308.304H155.176V310.151H147.62V308.304ZM159.834 318.091V303.091H161.908V304.859H162.085C162.208 304.632 162.386 304.369 162.618 304.071C162.85 303.773 163.172 303.512 163.584 303.29C163.996 303.062 164.54 302.949 165.217 302.949C166.098 302.949 166.884 303.171 167.575 303.616C168.267 304.062 168.809 304.703 169.202 305.541C169.599 306.379 169.798 307.388 169.798 308.567C169.798 309.746 169.602 310.757 169.209 311.599C168.816 312.437 168.276 313.084 167.589 313.538C166.903 313.988 166.119 314.213 165.239 314.213C164.576 314.213 164.034 314.102 163.612 313.879C163.196 313.657 162.869 313.396 162.632 313.098C162.395 312.8 162.213 312.535 162.085 312.303H161.957V318.091H159.834ZM161.915 308.545C161.915 309.312 162.026 309.985 162.249 310.562C162.471 311.14 162.793 311.592 163.214 311.919C163.636 312.241 164.152 312.402 164.763 312.402C165.397 312.402 165.928 312.234 166.354 311.898C166.78 311.557 167.102 311.095 167.32 310.513C167.542 309.93 167.653 309.275 167.653 308.545C167.653 307.826 167.545 307.179 167.327 306.607C167.114 306.034 166.792 305.581 166.361 305.25C165.935 304.919 165.402 304.753 164.763 304.753C164.147 304.753 163.626 304.911 163.2 305.229C162.779 305.546 162.459 305.989 162.241 306.557C162.024 307.125 161.915 307.788 161.915 308.545ZM172.178 318.091V303.091H174.251V304.859H174.429C174.552 304.632 174.73 304.369 174.962 304.071C175.194 303.773 175.516 303.512 175.928 303.29C176.339 303.062 176.884 302.949 177.561 302.949C178.442 302.949 179.228 303.171 179.919 303.616C180.61 304.062 181.152 304.703 181.545 305.541C181.943 306.379 182.142 307.388 182.142 308.567C182.142 309.746 181.946 310.757 181.553 311.599C181.16 312.437 180.62 313.084 179.933 313.538C179.247 313.988 178.463 314.213 177.582 314.213C176.92 314.213 176.377 314.102 175.956 313.879C175.539 313.657 175.213 313.396 174.976 313.098C174.739 312.8 174.557 312.535 174.429 312.303H174.301V318.091H172.178ZM174.259 308.545C174.259 309.312 174.37 309.985 174.592 310.562C174.815 311.14 175.137 311.592 175.558 311.919C175.98 312.241 176.496 312.402 177.107 312.402C177.741 312.402 178.271 312.234 178.697 311.898C179.124 311.557 179.446 311.095 179.663 310.513C179.886 309.93 179.997 309.275 179.997 308.545C179.997 307.826 179.888 307.179 179.67 306.607C179.457 306.034 179.135 305.581 178.705 305.25C178.278 304.919 177.746 304.753 177.107 304.753C176.491 304.753 175.97 304.911 175.544 305.229C175.123 305.546 174.803 305.989 174.585 306.557C174.367 307.125 174.259 307.788 174.259 308.545Z" fill="url(#paint3_linear_2001_3171)" style=""/>
<g clip-path="url(#clip4_2001_3171)">
<path d="M451.803 314.233C452.143 314.233 452.482 314.097 452.713 313.839L463.226 303.068C463.457 302.837 463.593 302.538 463.593 302.199C463.593 301.492 463.063 300.949 462.357 300.949C462.017 300.949 461.705 301.085 461.474 301.302L451.07 311.937H452.523L442.119 301.302C441.902 301.085 441.589 300.949 441.236 300.949C440.53 300.949 440 301.492 440 302.199C440 302.538 440.136 302.837 440.367 303.081L450.879 313.839C451.138 314.097 451.45 314.233 451.803 314.233Z" fill="#E8ECEF" style="fill:#E8ECEF;fill:color(display-p3 0.9103 0.9267 0.9377);fill-opacity:1;"/>
</g>
<mask id="path-21-inside-4_2001_3171" fill="white">
<path d="M0 346H496V424H0V346Z"/>
</mask>
<path d="M0 347H496V345H0V347ZM496 423H0V425H496V423Z" fill="white" fill-opacity="0.1" style="fill:white;fill-opacity:0.1;" mask="url(#path-21-inside-4_2001_3171)"/>
<path d="M45.679 382.185H43.4631C43.3778 381.711 43.2192 381.295 42.9872 380.935C42.7552 380.575 42.4711 380.269 42.1349 380.018C41.7988 379.768 41.4223 379.578 41.0057 379.45C40.5938 379.322 40.1558 379.259 39.6918 379.259C38.8537 379.259 38.1032 379.469 37.4403 379.891C36.7822 380.312 36.2614 380.93 35.8778 381.744C35.4991 382.559 35.3097 383.553 35.3097 384.727C35.3097 385.911 35.4991 386.91 35.8778 387.724C36.2614 388.539 36.7846 389.154 37.4474 389.571C38.1103 389.988 38.8561 390.196 39.6847 390.196C40.1439 390.196 40.5795 390.134 40.9915 390.011C41.4081 389.884 41.7846 389.696 42.1207 389.45C42.4569 389.204 42.741 388.903 42.973 388.548C43.2098 388.188 43.3731 387.777 43.4631 387.312L45.679 387.32C45.5606 388.035 45.331 388.693 44.9901 389.294C44.6539 389.891 44.2206 390.407 43.6903 390.842C43.1648 391.273 42.5634 391.607 41.8864 391.844C41.2093 392.08 40.4706 392.199 39.6705 392.199C38.411 392.199 37.2888 391.901 36.304 391.304C35.3191 390.703 34.5426 389.843 33.9744 388.726C33.411 387.608 33.1293 386.276 33.1293 384.727C33.1293 383.174 33.4134 381.841 33.9815 380.729C34.5497 379.611 35.3262 378.754 36.3111 378.158C37.2959 377.556 38.4157 377.256 39.6705 377.256C40.4422 377.256 41.1619 377.367 41.8295 377.589C42.5019 377.807 43.1056 378.129 43.6406 378.555C44.1757 378.977 44.6184 379.493 44.9688 380.104C45.3191 380.71 45.5559 381.403 45.679 382.185ZM48.1346 392V381.091H50.1871V382.824H50.3008C50.4996 382.237 50.85 381.775 51.3519 381.439C51.8585 381.098 52.4315 380.928 53.0707 380.928C53.2032 380.928 53.3595 380.932 53.5394 380.942C53.7241 380.951 53.8685 380.963 53.9727 380.977V383.009C53.8874 382.985 53.7359 382.959 53.5181 382.93C53.3003 382.897 53.0825 382.881 52.8647 382.881C52.3628 382.881 51.9154 382.987 51.5224 383.2C51.1341 383.409 50.8263 383.7 50.5991 384.074C50.3718 384.443 50.2582 384.865 50.2582 385.338V392H48.1346ZM60.1214 392.22C59.0466 392.22 58.121 391.991 57.3445 391.531C56.5727 391.067 55.9761 390.416 55.5547 389.578C55.138 388.735 54.9297 387.748 54.9297 386.616C54.9297 385.499 55.138 384.514 55.5547 383.662C55.9761 382.81 56.5632 382.144 57.3161 381.666C58.0736 381.188 58.959 380.949 59.9723 380.949C60.5878 380.949 61.1844 381.051 61.7621 381.254C62.3397 381.458 62.8582 381.777 63.3175 382.213C63.7768 382.649 64.139 383.214 64.4041 383.911C64.6693 384.602 64.8018 385.442 64.8018 386.432V387.185H56.13V385.594H62.7209C62.7209 385.035 62.6072 384.54 62.38 384.109C62.1527 383.674 61.8331 383.33 61.4212 383.08C61.014 382.829 60.5357 382.703 59.9865 382.703C59.3899 382.703 58.8691 382.85 58.424 383.143C57.9837 383.432 57.6428 383.811 57.4013 384.28C57.1645 384.744 57.0462 385.248 57.0462 385.793V387.036C57.0462 387.765 57.174 388.385 57.4297 388.896C57.6901 389.408 58.0523 389.798 58.5163 390.068C58.9804 390.333 59.5225 390.466 60.1428 390.466C60.5452 390.466 60.9122 390.409 61.2436 390.295C61.575 390.177 61.8615 390.002 62.103 389.77C62.3445 389.538 62.5291 389.251 62.657 388.911L64.6669 389.273C64.5059 389.865 64.2171 390.383 63.8004 390.828C63.3885 391.268 62.87 391.612 62.245 391.858C61.6248 392.099 60.9169 392.22 60.1214 392.22ZM70.3327 392.241C69.6415 392.241 69.0165 392.114 68.4577 391.858C67.899 391.598 67.4563 391.221 67.1296 390.729C66.8076 390.236 66.6467 389.633 66.6467 388.918C66.6467 388.302 66.765 387.795 67.0018 387.398C67.2385 387 67.5581 386.685 67.9606 386.453C68.363 386.221 68.8129 386.046 69.31 385.928C69.8072 385.809 70.3138 385.719 70.8299 385.658C71.4833 385.582 72.0136 385.52 72.4208 385.473C72.828 385.421 73.1239 385.338 73.3086 385.224C73.4933 385.111 73.5856 384.926 73.5856 384.67V384.621C73.5856 384 73.4104 383.52 73.06 383.179C72.7144 382.838 72.1983 382.668 71.5117 382.668C70.7968 382.668 70.2333 382.826 69.8214 383.143C69.4142 383.456 69.1325 383.804 68.9762 384.188L66.9805 383.733C67.2172 383.07 67.5629 382.535 68.0174 382.128C68.4767 381.716 69.0046 381.418 69.6012 381.233C70.1978 381.044 70.8252 380.949 71.4833 380.949C71.9189 380.949 72.3806 381.001 72.8683 381.105C73.3607 381.205 73.82 381.389 74.2461 381.659C74.677 381.929 75.0297 382.315 75.3043 382.817C75.579 383.314 75.7163 383.96 75.7163 384.756V392H73.6424V390.509H73.5572C73.4199 390.783 73.2139 391.053 72.9393 391.318C72.6647 391.583 72.3119 391.804 71.881 391.979C71.4502 392.154 70.9341 392.241 70.3327 392.241ZM70.7944 390.537C71.3815 390.537 71.8834 390.421 72.3001 390.189C72.7215 389.957 73.0411 389.654 73.2589 389.28C73.4814 388.901 73.5927 388.496 73.5927 388.065V386.659C73.5169 386.735 73.3701 386.806 73.1523 386.872C72.9393 386.934 72.6954 386.988 72.4208 387.036C72.1462 387.078 71.8787 387.118 71.6183 387.156C71.3578 387.189 71.14 387.218 70.9648 387.241C70.5529 387.294 70.1765 387.381 69.8356 387.504C69.4994 387.627 69.2295 387.805 69.0259 388.037C68.8271 388.264 68.7276 388.567 68.7276 388.946C68.7276 389.472 68.9218 389.869 69.31 390.139C69.6983 390.404 70.1931 390.537 70.7944 390.537ZM83.6371 381.091V382.795H77.6783V381.091H83.6371ZM79.2763 378.477H81.3999V388.797C81.3999 389.209 81.4614 389.519 81.5845 389.727C81.7076 389.931 81.8662 390.071 82.0604 390.146C82.2592 390.217 82.4747 390.253 82.7067 390.253C82.8771 390.253 83.0263 390.241 83.1541 390.217C83.282 390.194 83.3814 390.175 83.4524 390.161L83.8359 391.915C83.7128 391.962 83.5376 392.009 83.3104 392.057C83.0831 392.109 82.799 392.137 82.4581 392.142C81.8994 392.152 81.3786 392.052 80.8956 391.844C80.4126 391.635 80.022 391.313 79.7237 390.878C79.4254 390.442 79.2763 389.895 79.2763 389.237V378.477ZM90.5707 392.22C89.4959 392.22 88.5702 391.991 87.7937 391.531C87.0219 391.067 86.4253 390.416 86.0039 389.578C85.5872 388.735 85.3789 387.748 85.3789 386.616C85.3789 385.499 85.5872 384.514 86.0039 383.662C86.4253 382.81 87.0124 382.144 87.7653 381.666C88.5228 381.188 89.4083 380.949 90.4215 380.949C91.0371 380.949 91.6336 381.051 92.2113 381.254C92.7889 381.458 93.3074 381.777 93.7667 382.213C94.226 382.649 94.5882 383.214 94.8533 383.911C95.1185 384.602 95.2511 385.442 95.2511 386.432V387.185H86.5792V385.594H93.1701C93.1701 385.035 93.0565 384.54 92.8292 384.109C92.6019 383.674 92.2823 383.33 91.8704 383.08C91.4632 382.829 90.985 382.703 90.4357 382.703C89.8391 382.703 89.3183 382.85 88.8732 383.143C88.4329 383.432 88.092 383.811 87.8505 384.28C87.6138 384.744 87.4954 385.248 87.4954 385.793V387.036C87.4954 387.765 87.6232 388.385 87.8789 388.896C88.1393 389.408 88.5015 389.798 88.9656 390.068C89.4296 390.333 89.9717 390.466 90.592 390.466C90.9944 390.466 91.3614 390.409 91.6928 390.295C92.0243 390.177 92.3107 390.002 92.5522 389.77C92.7937 389.538 92.9783 389.251 93.1062 388.911L95.1161 389.273C94.9551 389.865 94.6663 390.383 94.2496 390.828C93.8377 391.268 93.3192 391.612 92.6942 391.858C92.074 392.099 91.3661 392.22 90.5707 392.22ZM104.342 377.455L108.39 389.301H108.554L112.602 377.455H114.974L109.74 392H107.204L101.97 377.455H104.342ZM123.815 387.476V381.091H125.945V392H123.857V390.111H123.744C123.493 390.693 123.09 391.179 122.536 391.567C121.987 391.95 121.303 392.142 120.484 392.142C119.783 392.142 119.163 391.988 118.623 391.68C118.088 391.368 117.666 390.906 117.359 390.295C117.056 389.685 116.904 388.929 116.904 388.03V381.091H119.028V387.774C119.028 388.518 119.234 389.109 119.646 389.55C120.058 389.99 120.593 390.21 121.251 390.21C121.648 390.21 122.044 390.111 122.437 389.912C122.835 389.713 123.164 389.412 123.424 389.01C123.689 388.607 123.819 388.096 123.815 387.476ZM133.5 392.22C132.426 392.22 131.5 391.991 130.723 391.531C129.952 391.067 129.355 390.416 128.934 389.578C128.517 388.735 128.309 387.748 128.309 386.616C128.309 385.499 128.517 384.514 128.934 383.662C129.355 382.81 129.942 382.144 130.695 381.666C131.453 381.188 132.338 380.949 133.351 380.949C133.967 380.949 134.563 381.051 135.141 381.254C135.719 381.458 136.237 381.777 136.696 382.213C137.156 382.649 137.518 383.214 137.783 383.911C138.048 384.602 138.181 385.442 138.181 386.432V387.185H129.509V385.594H136.1C136.1 385.035 135.986 384.54 135.759 384.109C135.532 383.674 135.212 383.33 134.8 383.08C134.393 382.829 133.915 382.703 133.365 382.703C132.769 382.703 132.248 382.85 131.803 383.143C131.363 383.432 131.022 383.811 130.78 384.28C130.543 384.744 130.425 385.248 130.425 385.793V387.036C130.425 387.765 130.553 388.385 130.809 388.896C131.069 389.408 131.431 389.798 131.895 390.068C132.359 390.333 132.901 390.466 133.522 390.466C133.924 390.466 134.291 390.409 134.623 390.295C134.954 390.177 135.24 390.002 135.482 389.77C135.723 389.538 135.908 389.251 136.036 388.911L138.046 389.273C137.885 389.865 137.596 390.383 137.179 390.828C136.767 391.268 136.249 391.612 135.624 391.858C135.004 392.099 134.296 392.22 133.5 392.22ZM147.229 392H144.9L150.134 377.455H152.669L157.904 392H155.574L151.462 380.097H151.348L147.229 392ZM147.62 386.304H155.176V388.151H147.62V386.304ZM159.834 396.091V381.091H161.908V382.859H162.085C162.208 382.632 162.386 382.369 162.618 382.071C162.85 381.773 163.172 381.512 163.584 381.29C163.996 381.062 164.54 380.949 165.217 380.949C166.098 380.949 166.884 381.171 167.575 381.616C168.267 382.062 168.809 382.703 169.202 383.541C169.599 384.379 169.798 385.388 169.798 386.567C169.798 387.746 169.602 388.757 169.209 389.599C168.816 390.437 168.276 391.084 167.589 391.538C166.903 391.988 166.119 392.213 165.239 392.213C164.576 392.213 164.034 392.102 163.612 391.879C163.196 391.657 162.869 391.396 162.632 391.098C162.395 390.8 162.213 390.535 162.085 390.303H161.957V396.091H159.834ZM161.915 386.545C161.915 387.312 162.026 387.985 162.249 388.562C162.471 389.14 162.793 389.592 163.214 389.919C163.636 390.241 164.152 390.402 164.763 390.402C165.397 390.402 165.928 390.234 166.354 389.898C166.78 389.557 167.102 389.095 167.32 388.513C167.542 387.93 167.653 387.275 167.653 386.545C167.653 385.826 167.545 385.179 167.327 384.607C167.114 384.034 166.792 383.581 166.361 383.25C165.935 382.919 165.402 382.753 164.763 382.753C164.147 382.753 163.626 382.911 163.2 383.229C162.779 383.546 162.459 383.989 162.241 384.557C162.024 385.125 161.915 385.788 161.915 386.545ZM172.178 396.091V381.091H174.251V382.859H174.429C174.552 382.632 174.73 382.369 174.962 382.071C175.194 381.773 175.516 381.512 175.928 381.29C176.339 381.062 176.884 380.949 177.561 380.949C178.442 380.949 179.228 381.171 179.919 381.616C180.61 382.062 181.152 382.703 181.545 383.541C181.943 384.379 182.142 385.388 182.142 386.567C182.142 387.746 181.946 388.757 181.553 389.599C181.16 390.437 180.62 391.084 179.933 391.538C179.247 391.988 178.463 392.213 177.582 392.213C176.92 392.213 176.377 392.102 175.956 391.879C175.539 391.657 175.213 391.396 174.976 391.098C174.739 390.8 174.557 390.535 174.429 390.303H174.301V396.091H172.178ZM174.259 386.545C174.259 387.312 174.37 387.985 174.592 388.562C174.815 389.14 175.137 389.592 175.558 389.919C175.98 390.241 176.496 390.402 177.107 390.402C177.741 390.402 178.271 390.234 178.697 389.898C179.124 389.557 179.446 389.095 179.663 388.513C179.886 387.93 179.997 387.275 179.997 386.545C179.997 385.826 179.888 385.179 179.67 384.607C179.457 384.034 179.135 383.581 178.705 383.25C178.278 382.919 177.746 382.753 177.107 382.753C176.491 382.753 175.97 382.911 175.544 383.229C175.123 383.546 174.803 383.989 174.585 384.557C174.367 385.125 174.259 385.788 174.259 386.545Z" fill="url(#paint4_linear_2001_3171)" style=""/>
<g clip-path="url(#clip5_2001_3171)">
<path d="M451.803 392.233C452.143 392.233 452.482 392.097 452.713 391.839L463.226 381.068C463.457 380.837 463.593 380.538 463.593 380.199C463.593 379.492 463.063 378.949 462.357 378.949C462.017 378.949 461.705 379.085 461.474 379.302L451.07 389.937H452.523L442.119 379.302C441.902 379.085 441.589 378.949 441.236 378.949C440.53 378.949 440 379.492 440 380.199C440 380.538 440.136 380.837 440.367 381.081L450.879 391.839C451.138 392.097 451.45 392.233 451.803 392.233Z" fill="#E8ECEF" style="fill:#E8ECEF;fill:color(display-p3 0.9103 0.9267 0.9377);fill-opacity:1;"/>
</g>
<mask id="path-25-inside-5_2001_3171" fill="white">
<path d="M0 424H496V502H0V424Z"/>
</mask>
<path d="M0 425H496V423H0V425ZM496 501H0V503H496V501Z" fill="white" fill-opacity="0.1" style="fill:white;fill-opacity:0.1;" mask="url(#path-25-inside-5_2001_3171)"/>
<path d="M45.679 460.185H43.4631C43.3778 459.711 43.2192 459.295 42.9872 458.935C42.7552 458.575 42.4711 458.269 42.1349 458.018C41.7988 457.768 41.4223 457.578 41.0057 457.45C40.5938 457.322 40.1558 457.259 39.6918 457.259C38.8537 457.259 38.1032 457.469 37.4403 457.891C36.7822 458.312 36.2614 458.93 35.8778 459.744C35.4991 460.559 35.3097 461.553 35.3097 462.727C35.3097 463.911 35.4991 464.91 35.8778 465.724C36.2614 466.539 36.7846 467.154 37.4474 467.571C38.1103 467.988 38.8561 468.196 39.6847 468.196C40.1439 468.196 40.5795 468.134 40.9915 468.011C41.4081 467.884 41.7846 467.696 42.1207 467.45C42.4569 467.204 42.741 466.903 42.973 466.548C43.2098 466.188 43.3731 465.777 43.4631 465.312L45.679 465.32C45.5606 466.035 45.331 466.693 44.9901 467.294C44.6539 467.891 44.2206 468.407 43.6903 468.842C43.1648 469.273 42.5634 469.607 41.8864 469.844C41.2093 470.08 40.4706 470.199 39.6705 470.199C38.411 470.199 37.2888 469.901 36.304 469.304C35.3191 468.703 34.5426 467.843 33.9744 466.726C33.411 465.608 33.1293 464.276 33.1293 462.727C33.1293 461.174 33.4134 459.841 33.9815 458.729C34.5497 457.611 35.3262 456.754 36.3111 456.158C37.2959 455.556 38.4157 455.256 39.6705 455.256C40.4422 455.256 41.1619 455.367 41.8295 455.589C42.5019 455.807 43.1056 456.129 43.6406 456.555C44.1757 456.977 44.6184 457.493 44.9688 458.104C45.3191 458.71 45.5559 459.403 45.679 460.185ZM48.1346 470V459.091H50.1871V460.824H50.3008C50.4996 460.237 50.85 459.775 51.3519 459.439C51.8585 459.098 52.4315 458.928 53.0707 458.928C53.2032 458.928 53.3595 458.932 53.5394 458.942C53.7241 458.951 53.8685 458.963 53.9727 458.977V461.009C53.8874 460.985 53.7359 460.959 53.5181 460.93C53.3003 460.897 53.0825 460.881 52.8647 460.881C52.3628 460.881 51.9154 460.987 51.5224 461.2C51.1341 461.409 50.8263 461.7 50.5991 462.074C50.3718 462.443 50.2582 462.865 50.2582 463.338V470H48.1346ZM60.1214 470.22C59.0466 470.22 58.121 469.991 57.3445 469.531C56.5727 469.067 55.9761 468.416 55.5547 467.578C55.138 466.735 54.9297 465.748 54.9297 464.616C54.9297 463.499 55.138 462.514 55.5547 461.662C55.9761 460.81 56.5632 460.144 57.3161 459.666C58.0736 459.188 58.959 458.949 59.9723 458.949C60.5878 458.949 61.1844 459.051 61.7621 459.254C62.3397 459.458 62.8582 459.777 63.3175 460.213C63.7768 460.649 64.139 461.214 64.4041 461.911C64.6693 462.602 64.8018 463.442 64.8018 464.432V465.185H56.13V463.594H62.7209C62.7209 463.035 62.6072 462.54 62.38 462.109C62.1527 461.674 61.8331 461.33 61.4212 461.08C61.014 460.829 60.5357 460.703 59.9865 460.703C59.3899 460.703 58.8691 460.85 58.424 461.143C57.9837 461.432 57.6428 461.811 57.4013 462.28C57.1645 462.744 57.0462 463.248 57.0462 463.793V465.036C57.0462 465.765 57.174 466.385 57.4297 466.896C57.6901 467.408 58.0523 467.798 58.5163 468.068C58.9804 468.333 59.5225 468.466 60.1428 468.466C60.5452 468.466 60.9122 468.409 61.2436 468.295C61.575 468.177 61.8615 468.002 62.103 467.77C62.3445 467.538 62.5291 467.251 62.657 466.911L64.6669 467.273C64.5059 467.865 64.2171 468.383 63.8004 468.828C63.3885 469.268 62.87 469.612 62.245 469.858C61.6248 470.099 60.9169 470.22 60.1214 470.22ZM70.3327 470.241C69.6415 470.241 69.0165 470.114 68.4577 469.858C67.899 469.598 67.4563 469.221 67.1296 468.729C66.8076 468.236 66.6467 467.633 66.6467 466.918C66.6467 466.302 66.765 465.795 67.0018 465.398C67.2385 465 67.5581 464.685 67.9606 464.453C68.363 464.221 68.8129 464.046 69.31 463.928C69.8072 463.809 70.3138 463.719 70.8299 463.658C71.4833 463.582 72.0136 463.52 72.4208 463.473C72.828 463.421 73.1239 463.338 73.3086 463.224C73.4933 463.111 73.5856 462.926 73.5856 462.67V462.621C73.5856 462 73.4104 461.52 73.06 461.179C72.7144 460.838 72.1983 460.668 71.5117 460.668C70.7968 460.668 70.2333 460.826 69.8214 461.143C69.4142 461.456 69.1325 461.804 68.9762 462.188L66.9805 461.733C67.2172 461.07 67.5629 460.535 68.0174 460.128C68.4767 459.716 69.0046 459.418 69.6012 459.233C70.1978 459.044 70.8252 458.949 71.4833 458.949C71.9189 458.949 72.3806 459.001 72.8683 459.105C73.3607 459.205 73.82 459.389 74.2461 459.659C74.677 459.929 75.0297 460.315 75.3043 460.817C75.579 461.314 75.7163 461.96 75.7163 462.756V470H73.6424V468.509H73.5572C73.4199 468.783 73.2139 469.053 72.9393 469.318C72.6647 469.583 72.3119 469.804 71.881 469.979C71.4502 470.154 70.9341 470.241 70.3327 470.241ZM70.7944 468.537C71.3815 468.537 71.8834 468.421 72.3001 468.189C72.7215 467.957 73.0411 467.654 73.2589 467.28C73.4814 466.901 73.5927 466.496 73.5927 466.065V464.659C73.5169 464.735 73.3701 464.806 73.1523 464.872C72.9393 464.934 72.6954 464.988 72.4208 465.036C72.1462 465.078 71.8787 465.118 71.6183 465.156C71.3578 465.189 71.14 465.218 70.9648 465.241C70.5529 465.294 70.1765 465.381 69.8356 465.504C69.4994 465.627 69.2295 465.805 69.0259 466.037C68.8271 466.264 68.7276 466.567 68.7276 466.946C68.7276 467.472 68.9218 467.869 69.31 468.139C69.6983 468.404 70.1931 468.537 70.7944 468.537ZM83.6371 459.091V460.795H77.6783V459.091H83.6371ZM79.2763 456.477H81.3999V466.797C81.3999 467.209 81.4614 467.519 81.5845 467.727C81.7076 467.931 81.8662 468.071 82.0604 468.146C82.2592 468.217 82.4747 468.253 82.7067 468.253C82.8771 468.253 83.0263 468.241 83.1541 468.217C83.282 468.194 83.3814 468.175 83.4524 468.161L83.8359 469.915C83.7128 469.962 83.5376 470.009 83.3104 470.057C83.0831 470.109 82.799 470.137 82.4581 470.142C81.8994 470.152 81.3786 470.052 80.8956 469.844C80.4126 469.635 80.022 469.313 79.7237 468.878C79.4254 468.442 79.2763 467.895 79.2763 467.237V456.477ZM90.5707 470.22C89.4959 470.22 88.5702 469.991 87.7937 469.531C87.0219 469.067 86.4253 468.416 86.0039 467.578C85.5872 466.735 85.3789 465.748 85.3789 464.616C85.3789 463.499 85.5872 462.514 86.0039 461.662C86.4253 460.81 87.0124 460.144 87.7653 459.666C88.5228 459.188 89.4083 458.949 90.4215 458.949C91.0371 458.949 91.6336 459.051 92.2113 459.254C92.7889 459.458 93.3074 459.777 93.7667 460.213C94.226 460.649 94.5882 461.214 94.8533 461.911C95.1185 462.602 95.2511 463.442 95.2511 464.432V465.185H86.5792V463.594H93.1701C93.1701 463.035 93.0565 462.54 92.8292 462.109C92.6019 461.674 92.2823 461.33 91.8704 461.08C91.4632 460.829 90.985 460.703 90.4357 460.703C89.8391 460.703 89.3183 460.85 88.8732 461.143C88.4329 461.432 88.092 461.811 87.8505 462.28C87.6138 462.744 87.4954 463.248 87.4954 463.793V465.036C87.4954 465.765 87.6232 466.385 87.8789 466.896C88.1393 467.408 88.5015 467.798 88.9656 468.068C89.4296 468.333 89.9717 468.466 90.592 468.466C90.9944 468.466 91.3614 468.409 91.6928 468.295C92.0243 468.177 92.3107 468.002 92.5522 467.77C92.7937 467.538 92.9783 467.251 93.1062 466.911L95.1161 467.273C94.9551 467.865 94.6663 468.383 94.2496 468.828C93.8377 469.268 93.3192 469.612 92.6942 469.858C92.074 470.099 91.3661 470.22 90.5707 470.22ZM104.342 455.455L108.39 467.301H108.554L112.602 455.455H114.974L109.74 470H107.204L101.97 455.455H104.342ZM123.815 465.476V459.091H125.945V470H123.857V468.111H123.744C123.493 468.693 123.09 469.179 122.536 469.567C121.987 469.95 121.303 470.142 120.484 470.142C119.783 470.142 119.163 469.988 118.623 469.68C118.088 469.368 117.666 468.906 117.359 468.295C117.056 467.685 116.904 466.929 116.904 466.03V459.091H119.028V465.774C119.028 466.518 119.234 467.109 119.646 467.55C120.058 467.99 120.593 468.21 121.251 468.21C121.648 468.21 122.044 468.111 122.437 467.912C122.835 467.713 123.164 467.412 123.424 467.01C123.689 466.607 123.819 466.096 123.815 465.476ZM133.5 470.22C132.426 470.22 131.5 469.991 130.723 469.531C129.952 469.067 129.355 468.416 128.934 467.578C128.517 466.735 128.309 465.748 128.309 464.616C128.309 463.499 128.517 462.514 128.934 461.662C129.355 460.81 129.942 460.144 130.695 459.666C131.453 459.188 132.338 458.949 133.351 458.949C133.967 458.949 134.563 459.051 135.141 459.254C135.719 459.458 136.237 459.777 136.696 460.213C137.156 460.649 137.518 461.214 137.783 461.911C138.048 462.602 138.181 463.442 138.181 464.432V465.185H129.509V463.594H136.1C136.1 463.035 135.986 462.54 135.759 462.109C135.532 461.674 135.212 461.33 134.8 461.08C134.393 460.829 133.915 460.703 133.365 460.703C132.769 460.703 132.248 460.85 131.803 461.143C131.363 461.432 131.022 461.811 130.78 462.28C130.543 462.744 130.425 463.248 130.425 463.793V465.036C130.425 465.765 130.553 466.385 130.809 466.896C131.069 467.408 131.431 467.798 131.895 468.068C132.359 468.333 132.901 468.466 133.522 468.466C133.924 468.466 134.291 468.409 134.623 468.295C134.954 468.177 135.24 468.002 135.482 467.77C135.723 467.538 135.908 467.251 136.036 466.911L138.046 467.273C137.885 467.865 137.596 468.383 137.179 468.828C136.767 469.268 136.249 469.612 135.624 469.858C135.004 470.099 134.296 470.22 133.5 470.22ZM147.229 470H144.9L150.134 455.455H152.669L157.904 470H155.574L151.462 458.097H151.348L147.229 470ZM147.62 464.304H155.176V466.151H147.62V464.304ZM159.834 474.091V459.091H161.908V460.859H162.085C162.208 460.632 162.386 460.369 162.618 460.071C162.85 459.773 163.172 459.512 163.584 459.29C163.996 459.062 164.54 458.949 165.217 458.949C166.098 458.949 166.884 459.171 167.575 459.616C168.267 460.062 168.809 460.703 169.202 461.541C169.599 462.379 169.798 463.388 169.798 464.567C169.798 465.746 169.602 466.757 169.209 467.599C168.816 468.437 168.276 469.084 167.589 469.538C166.903 469.988 166.119 470.213 165.239 470.213C164.576 470.213 164.034 470.102 163.612 469.879C163.196 469.657 162.869 469.396 162.632 469.098C162.395 468.8 162.213 468.535 162.085 468.303H161.957V474.091H159.834ZM161.915 464.545C161.915 465.312 162.026 465.985 162.249 466.562C162.471 467.14 162.793 467.592 163.214 467.919C163.636 468.241 164.152 468.402 164.763 468.402C165.397 468.402 165.928 468.234 166.354 467.898C166.78 467.557 167.102 467.095 167.32 466.513C167.542 465.93 167.653 465.275 167.653 464.545C167.653 463.826 167.545 463.179 167.327 462.607C167.114 462.034 166.792 461.581 166.361 461.25C165.935 460.919 165.402 460.753 164.763 460.753C164.147 460.753 163.626 460.911 163.2 461.229C162.779 461.546 162.459 461.989 162.241 462.557C162.024 463.125 161.915 463.788 161.915 464.545ZM172.178 474.091V459.091H174.251V460.859H174.429C174.552 460.632 174.73 460.369 174.962 460.071C175.194 459.773 175.516 459.512 175.928 459.29C176.339 459.062 176.884 458.949 177.561 458.949C178.442 458.949 179.228 459.171 179.919 459.616C180.61 460.062 181.152 460.703 181.545 461.541C181.943 462.379 182.142 463.388 182.142 464.567C182.142 465.746 181.946 466.757 181.553 467.599C181.16 468.437 180.62 469.084 179.933 469.538C179.247 469.988 178.463 470.213 177.582 470.213C176.92 470.213 176.377 470.102 175.956 469.879C175.539 469.657 175.213 469.396 174.976 469.098C174.739 468.8 174.557 468.535 174.429 468.303H174.301V474.091H172.178ZM174.259 464.545C174.259 465.312 174.37 465.985 174.592 466.562C174.815 467.14 175.137 467.592 175.558 467.919C175.98 468.241 176.496 468.402 177.107 468.402C177.741 468.402 178.271 468.234 178.697 467.898C179.124 467.557 179.446 467.095 179.663 466.513C179.886 465.93 179.997 465.275 179.997 464.545C179.997 463.826 179.888 463.179 179.67 462.607C179.457 462.034 179.135 461.581 178.705 461.25C178.278 460.919 177.746 460.753 177.107 460.753C176.491 460.753 175.97 460.911 175.544 461.229C175.123 461.546 174.803 461.989 174.585 462.557C174.367 463.125 174.259 463.788 174.259 464.545Z" fill="url(#paint5_linear_2001_3171)" style=""/>
<g clip-path="url(#clip6_2001_3171)">
<path d="M451.803 470.233C452.143 470.233 452.482 470.097 452.713 469.839L463.226 459.068C463.457 458.837 463.593 458.538 463.593 458.199C463.593 457.492 463.063 456.949 462.357 456.949C462.017 456.949 461.705 457.085 461.474 457.302L451.07 467.937H452.523L442.119 457.302C441.902 457.085 441.589 456.949 441.236 456.949C440.53 456.949 440 457.492 440 458.199C440 458.538 440.136 458.837 440.367 459.081L450.879 469.839C451.138 470.097 451.45 470.233 451.803 470.233Z" fill="#E8ECEF" style="fill:#E8ECEF;fill:color(display-p3 0.9103 0.9267 0.9377);fill-opacity:1;"/>
</g>
<mask id="path-29-inside-6_2001_3171" fill="white">
<path d="M0 502H496V580H0V502Z"/>
</mask>
<path d="M0 503H496V501H0V503ZM496 579H0V581H496V579Z" fill="white" fill-opacity="0.1" style="fill:white;fill-opacity:0.1;" mask="url(#path-29-inside-6_2001_3171)"/>
<rect y="334" width="528" height="194" fill="url(#paint6_linear_2001_3171)" style=""/>
</g>
<defs>
<linearGradient id="paint0_linear_2001_3171" x1="56" y1="32" x2="56" y2="80" gradientUnits="userSpaceOnUse">
<stop stop-color="#606ACB" style="stop-color:#606ACB;stop-color:color(display-p3 0.3765 0.4157 0.7961);stop-opacity:1;"/>
<stop offset="1" stop-color="#4F5ABE" style="stop-color:#4F5ABE;stop-color:color(display-p3 0.3112 0.3516 0.7435);stop-opacity:1;"/>
</linearGradient>
<linearGradient id="paint1_linear_2001_3171" x1="231" y1="136" x2="231" y2="166" gradientUnits="userSpaceOnUse">
<stop stop-color="white" style="stop-color:white;stop-opacity:1;"/>
<stop offset="1" stop-color="white" stop-opacity="0.8" style="stop-color:white;stop-opacity:0.8;"/>
</linearGradient>
<linearGradient id="paint2_linear_2001_3171" x1="231" y1="214" x2="231" y2="244" gradientUnits="userSpaceOnUse">
<stop stop-color="white" style="stop-color:white;stop-opacity:1;"/>
<stop offset="1" stop-color="white" stop-opacity="0.8" style="stop-color:white;stop-opacity:0.8;"/>
</linearGradient>
<linearGradient id="paint3_linear_2001_3171" x1="231" y1="292" x2="231" y2="322" gradientUnits="userSpaceOnUse">
<stop stop-color="white" style="stop-color:white;stop-opacity:1;"/>
<stop offset="1" stop-color="white" stop-opacity="0.8" style="stop-color:white;stop-opacity:0.8;"/>
</linearGradient>
<linearGradient id="paint4_linear_2001_3171" x1="231" y1="370" x2="231" y2="400" gradientUnits="userSpaceOnUse">
<stop stop-color="white" style="stop-color:white;stop-opacity:1;"/>
<stop offset="1" stop-color="white" stop-opacity="0.8" style="stop-color:white;stop-opacity:0.8;"/>
</linearGradient>
<linearGradient id="paint5_linear_2001_3171" x1="231" y1="448" x2="231" y2="478" gradientUnits="userSpaceOnUse">
<stop stop-color="white" style="stop-color:white;stop-opacity:1;"/>
<stop offset="1" stop-color="white" stop-opacity="0.8" style="stop-color:white;stop-opacity:0.8;"/>
</linearGradient>
<linearGradient id="paint6_linear_2001_3171" x1="264" y1="334" x2="264" y2="528" gradientUnits="userSpaceOnUse">
<stop stop-color="#222224" stop-opacity="0" style="stop-color:none;stop-opacity:0;"/>
<stop offset="1" stop-color="#222224" style="stop-color:#222224;stop-color:color(display-p3 0.1333 0.1333 0.1412);stop-opacity:1;"/>
</linearGradient>
<clipPath id="clip0_2001_3171">
<rect width="496" height="528" fill="white" style="fill:white;fill-opacity:1;"/>
</clipPath>
<clipPath id="clip1_2001_3171">
<rect width="24" height="23.5858" fill="white" style="fill:white;fill-opacity:1;" transform="translate(440 44.207)"/>
</clipPath>
<clipPath id="clip2_2001_3171">
<rect width="24" height="14.4653" fill="white" style="fill:white;fill-opacity:1;" transform="translate(440 143.767)"/>
</clipPath>
<clipPath id="clip3_2001_3171">
<rect width="24" height="14.4653" fill="white" style="fill:white;fill-opacity:1;" transform="translate(440 221.767)"/>
</clipPath>
<clipPath id="clip4_2001_3171">
<rect width="24" height="14.4653" fill="white" style="fill:white;fill-opacity:1;" transform="translate(440 299.767)"/>
</clipPath>
<clipPath id="clip5_2001_3171">
<rect width="24" height="14.4653" fill="white" style="fill:white;fill-opacity:1;" transform="translate(440 377.767)"/>
</clipPath>
<clipPath id="clip6_2001_3171">
<rect width="24" height="14.4653" fill="white" style="fill:white;fill-opacity:1;" transform="translate(440 455.767)"/>
</clipPath>
</defs>
</svg>
